<svg width="47" height="46" viewBox="0 0 47 46" fill="none" xmlns="http://www.w3.org/2000/svg">
<rect x="0.199219" y="0.5" width="46" height="45" rx="22.5" fill="#146FEE" fill-opacity="0.12"/>
<path d="M11.1992 23C11.1992 24.5759 11.5096 26.1363 12.1127 27.5922C12.7157 29.0481 13.5996 30.371 14.7139 31.4853C15.8282 32.5996 17.1511 33.4835 18.607 34.0866C20.0629 34.6896 21.6234 35 23.1992 35C24.7751 35 26.3355 34.6896 27.7914 34.0866C29.2473 33.4835 30.5702 32.5996 31.6845 31.4853C32.7988 30.371 33.6827 29.0481 34.2858 27.5922C34.8888 26.1363 35.1992 24.5759 35.1992 23C35.1992 19.8174 33.9349 16.7652 31.6845 14.5147C29.4341 12.2643 26.3818 11 23.1992 11C20.0166 11 16.9644 12.2643 14.7139 14.5147C12.4635 16.7652 11.1992 19.8174 11.1992 23Z" stroke="#146FEE" stroke-width="2" stroke-linecap="round" stroke-linejoin="round"/>
<path d="M23.1992 16.3333V23L27.1992 27" stroke="#146FEE" stroke-width="2" stroke-linecap="round" stroke-linejoin="round"/>
</svg>
