<svg width="47" height="46" viewBox="0 0 47 46" fill="none" xmlns="http://www.w3.org/2000/svg">
<rect x="0.599609" y="0.5" width="46" height="45" rx="22.5" fill="#146FEE" fill-opacity="0.12"/>
<path d="M29.2663 16.3333C29.2663 17.7478 28.7044 19.1044 27.7042 20.1046C26.704 21.1048 25.3474 21.6667 23.9329 21.6667C22.5185 21.6667 21.1619 21.1048 20.1617 20.1046C19.1615 19.1044 18.5996 17.7478 18.5996 16.3333C18.5996 14.9188 19.1615 13.5623 20.1617 12.5621C21.1619 11.5619 22.5185 11 23.9329 11C25.3474 11 26.704 11.5619 27.7042 12.5621C28.7044 13.5623 29.2663 14.9188 29.2663 16.3333ZM23.9329 25.6667C21.4576 25.6667 19.0836 26.65 17.3333 28.4003C15.5829 30.1507 14.5996 32.5246 14.5996 35H33.2663C33.2663 32.5246 32.2829 30.1507 30.5326 28.4003C28.7823 26.65 26.4083 25.6667 23.9329 25.6667Z" stroke="#146FEE" stroke-width="2" stroke-linecap="round" stroke-linejoin="round"/>
</svg>
