<svg width="16" height="13" viewBox="0 0 16 13" fill="none" xmlns="http://www.w3.org/2000/svg">
<path d="M0.376 12.096V8.092C0.376 7.09467 0.478667 6.156 0.684 5.276C0.918667 4.396 1.28533 3.53066 1.784 2.68C2.312 1.82933 3.00133 0.978665 3.852 0.127997L6.14 1.932C5.524 2.57733 5.02533 3.19333 4.644 3.78C4.26267 4.33733 3.984 4.90933 3.808 5.496C3.66133 6.05333 3.588 6.64 3.588 7.256L2.224 5.98H6.536V12.096H0.376ZM8.956 12.096V8.092C8.956 7.09467 9.05867 6.156 9.264 5.276C9.49867 4.396 9.86533 3.53066 10.364 2.68C10.892 1.82933 11.5813 0.978665 12.432 0.127997L14.72 1.932C14.104 2.57733 13.6053 3.19333 13.224 3.78C12.8427 4.33733 12.564 4.90933 12.388 5.496C12.2413 6.05333 12.168 6.64 12.168 7.256L10.804 5.98H15.116V12.096H8.956Z" fill="#146FEE"/>
</svg>
