<svg width="48" height="48" viewBox="0 0 48 48" fill="none" xmlns="http://www.w3.org/2000/svg">
<rect y="0.66684" width="47.3333" height="46.6663" rx="23.3332" fill="#146FEE" fill-opacity="0.12"/>
<path d="M21.3333 14.6668C21.3333 15.7277 20.9119 16.7451 20.1618 17.4953C19.4116 18.2454 18.3942 18.6668 17.3333 18.6668C16.2725 18.6668 15.2551 18.2454 14.5049 17.4953C13.7548 16.7451 13.3333 15.7277 13.3333 14.6668C13.3333 13.606 13.7548 12.5886 14.5049 11.8384C15.2551 11.0883 16.2725 10.6668 17.3333 10.6668C18.3942 10.6668 19.4116 11.0883 20.1618 11.8384C20.9119 12.5886 21.3333 13.606 21.3333 14.6668ZM19.3333 14.6668C19.3333 14.1364 19.1226 13.6277 18.7475 13.2526C18.3725 12.8776 17.8638 12.6668 17.3333 12.6668C16.8029 12.6668 16.2942 12.8776 15.9191 13.2526C15.544 13.6277 15.3333 14.1364 15.3333 14.6668C15.3333 15.1973 15.544 15.706 15.9191 16.0811C16.2942 16.4561 16.8029 16.6668 17.3333 16.6668C17.8638 16.6668 18.3725 16.4561 18.7475 16.0811C19.1226 15.706 19.3333 15.1973 19.3333 14.6668ZM32.6667 18.0002C32.6667 18.8842 32.3155 19.7321 31.6904 20.3572C31.0652 20.9823 30.2174 21.3335 29.3333 21.3335C28.4493 21.3335 27.6014 20.9823 26.9763 20.3572C26.3512 19.7321 26 18.8842 26 18.0002C26 17.1161 26.3512 16.2683 26.9763 15.6432C27.6014 15.018 28.4493 14.6668 29.3333 14.6668C30.2174 14.6668 31.0652 15.018 31.6904 15.6432C32.3155 16.2683 32.6667 17.1161 32.6667 18.0002ZM30.6667 18.0002C30.6667 17.6466 30.5262 17.3074 30.2761 17.0574C30.0261 16.8073 29.687 16.6668 29.3333 16.6668C28.9797 16.6668 28.6406 16.8073 28.3905 17.0574C28.1405 17.3074 28 17.6466 28 18.0002C28 18.3538 28.1405 18.6929 28.3905 18.943C28.6406 19.193 28.9797 19.3335 29.3333 19.3335C29.687 19.3335 30.0261 19.193 30.2761 18.943C30.5262 18.6929 30.6667 18.3538 30.6667 18.0002ZM25.196 22.3335C24.9783 21.5654 24.5158 20.8893 23.8788 20.408C23.2417 19.9267 22.4651 19.6665 21.6667 19.6668H13.6667C12.6942 19.6668 11.7616 20.0531 11.0739 20.7408C10.3863 21.4284 10 22.361 10 23.3335V27.3335C9.9999 27.7405 10.093 28.1422 10.2721 28.5077C10.4512 28.8732 10.7116 29.1929 11.0334 29.4422C11.3552 29.6915 11.7297 29.8638 12.1284 29.946C12.527 30.0281 12.9392 30.0179 13.3333 29.9162V34.6668C13.3334 35.1692 13.4754 35.6613 13.7429 36.0866C14.0104 36.5118 14.3926 36.8528 14.8454 37.0703C15.2983 37.2878 15.8034 37.3729 16.3025 37.316C16.8016 37.259 17.2745 37.0622 17.6667 36.7482C18.0588 37.0622 18.5317 37.259 19.0308 37.316C19.53 37.3729 20.035 37.2878 20.4879 37.0703C20.9407 36.8528 21.3229 36.5118 21.5904 36.0866C21.858 35.6613 21.9999 35.1692 22 34.6668V29.9162C22.6849 30.0913 23.4113 29.9881 24.0202 29.629C24.6292 29.2699 25.0711 28.6843 25.2493 28.0002H25.3333V34.6668C25.3334 35.1692 25.4754 35.6613 25.7429 36.0866C26.0104 36.5118 26.3926 36.8528 26.8454 37.0703C27.2983 37.2878 27.8034 37.3729 28.3025 37.316C28.8016 37.259 29.2745 37.0622 29.6667 36.7482C30.0588 37.0622 30.5317 37.259 31.0308 37.316C31.53 37.3729 32.035 37.2878 32.4879 37.0703C32.9407 36.8528 33.3229 36.5118 33.5904 36.0866C33.858 35.6613 33.9999 35.1692 34 34.6668V30.9162C34.2133 30.9713 34.4356 30.9993 34.6667 31.0002C35.3739 31.0002 36.0522 30.7192 36.5523 30.2191C37.0524 29.719 37.3333 29.0408 37.3333 28.3335V26.0002C37.3333 25.0277 36.947 24.0951 36.2594 23.4074C35.5718 22.7198 34.6391 22.3335 33.6667 22.3335H25.196ZM22 27.3335V24.0002C22 23.735 21.8946 23.4806 21.7071 23.2931C21.5196 23.1055 21.2652 23.0002 21 23.0002C20.7348 23.0002 20.4804 23.1055 20.2929 23.2931C20.1054 23.4806 20 23.735 20 24.0002V34.6668C20 34.8437 19.9298 35.0132 19.8047 35.1382C19.6797 35.2633 19.5101 35.3335 19.3333 35.3335C19.1565 35.3335 18.987 35.2633 18.8619 35.1382C18.7369 35.0132 18.6667 34.8437 18.6667 34.6668V30.0002C18.6667 29.735 18.5613 29.4806 18.3738 29.2931C18.1862 29.1055 17.9319 29.0002 17.6667 29.0002C17.4015 29.0002 17.1471 29.1055 16.9596 29.2931C16.772 29.4806 16.6667 29.735 16.6667 30.0002V34.6668C16.6667 34.8437 16.5964 35.0132 16.4714 35.1382C16.3464 35.2633 16.1768 35.3335 16 35.3335C15.8232 35.3335 15.6536 35.2633 15.5286 35.1382C15.4036 35.0132 15.3333 34.8437 15.3333 34.6668V24.0002C15.3333 23.735 15.228 23.4806 15.0404 23.2931C14.8529 23.1055 14.5985 23.0002 14.3333 23.0002C14.0681 23.0002 13.8138 23.1055 13.6262 23.2931C13.4387 23.4806 13.3333 23.735 13.3333 24.0002V27.3335C13.3333 27.5103 13.2631 27.6799 13.1381 27.8049C13.013 27.9299 12.8435 28.0002 12.6667 28.0002C12.4899 28.0002 12.3203 27.9299 12.1953 27.8049C12.0702 27.6799 12 27.5103 12 27.3335V23.3335C12 22.4135 12.7467 21.6668 13.6667 21.6668H21.6667C22.5867 21.6668 23.3333 22.4135 23.3333 23.3335V27.3335C23.3333 27.5103 23.2631 27.6799 23.1381 27.8049C23.013 27.9299 22.8435 28.0002 22.6667 28.0002C22.4899 28.0002 22.3203 27.9299 22.1953 27.8049C22.0702 27.6799 22 27.5103 22 27.3335ZM25.3333 24.3335H33.6667C34.5867 24.3335 35.3333 25.0802 35.3333 26.0002V28.3335C35.3333 28.5103 35.2631 28.6799 35.1381 28.8049C35.013 28.9299 34.8435 29.0002 34.6667 29.0002C34.4899 29.0002 34.3203 28.9299 34.1953 28.8049C34.0702 28.6799 34 28.5103 34 28.3335V26.6668C34 26.4016 33.8946 26.1473 33.7071 25.9597C33.5196 25.7722 33.2652 25.6668 33 25.6668C32.7348 25.6668 32.4804 25.7722 32.2929 25.9597C32.1054 26.1473 32 26.4016 32 26.6668V34.6668C32 34.8437 31.9298 35.0132 31.8047 35.1382C31.6797 35.2633 31.5101 35.3335 31.3333 35.3335C31.1565 35.3335 30.987 35.2633 30.8619 35.1382C30.7369 35.0132 30.6667 34.8437 30.6667 34.6668V31.3335C30.6667 31.0683 30.5613 30.8139 30.3738 30.6264C30.1862 30.4389 29.9319 30.3335 29.6667 30.3335C29.4015 30.3335 29.1471 30.4389 28.9596 30.6264C28.772 30.8139 28.6667 31.0683 28.6667 31.3335V34.6668C28.6667 34.8437 28.5964 35.0132 28.4714 35.1382C28.3464 35.2633 28.1768 35.3335 28 35.3335C27.8232 35.3335 27.6536 35.2633 27.5286 35.1382C27.4036 35.0132 27.3333 34.8437 27.3333 34.6668V27.0002C27.3333 26.735 27.228 26.4806 27.0404 26.2931C26.8529 26.1055 26.5986 26.0002 26.3333 26.0002H25.3333V24.3335Z" fill="#146FEE"/>
</svg>
