<svg width="48" height="46" viewBox="0 0 48 46" fill="none" xmlns="http://www.w3.org/2000/svg">
<rect x="0.599609" y="0.0833282" width="46.5" height="45.8333" rx="22.9167" fill="#146FEE" fill-opacity="0.12"/>
<path d="M18.1829 32.9167H13.9329C13.1815 32.9167 12.4608 32.6181 11.9295 32.0868C11.3981 31.5554 11.0996 30.8348 11.0996 30.0833V15.9167C11.0996 15.1652 11.3981 14.4445 11.9295 13.9132C12.4608 13.3818 13.1815 13.0833 13.9329 13.0833H33.7663C34.5177 13.0833 35.2384 13.3818 35.7697 13.9132C36.3011 14.4445 36.5996 15.1652 36.5996 15.9167V31.5C36.5996 31.8757 36.4504 32.2361 36.1847 32.5017C35.919 32.7674 35.5587 32.9167 35.1829 32.9167" stroke="#146FEE" stroke-width="2" stroke-linecap="round" stroke-linejoin="round"/>
<path d="M30.9336 32.9167C30.9336 32.1652 30.6351 31.4445 30.1037 30.9132C29.5724 30.3818 28.8517 30.0833 28.1003 30.0833H25.2669C24.5155 30.0833 23.7948 30.3818 23.2635 30.9132C22.7321 31.4445 22.4336 32.1652 22.4336 32.9167M23.8503 25.8333C23.8504 26.2055 23.9238 26.574 24.0663 26.9178C24.2088 27.2616 24.4176 27.574 24.6808 27.8371C24.9441 28.1002 25.2565 28.3089 25.6004 28.4512C25.9443 28.5935 26.3128 28.6668 26.685 28.6667C27.0572 28.6666 27.4257 28.5932 27.7695 28.4507C28.1133 28.3082 28.4257 28.0993 28.6888 27.8361C28.9519 27.5729 29.1605 27.2604 29.3029 26.9165C29.4452 26.5726 29.5184 26.2041 29.5183 25.8319C29.5182 25.0803 29.2194 24.3595 28.6878 23.8282C28.1562 23.2968 27.4352 22.9984 26.6836 22.9986C25.932 22.9988 25.2112 23.2975 24.6798 23.8292C24.1485 24.3608 23.8501 25.0817 23.8503 25.8333Z" stroke="#146FEE" stroke-width="2" stroke-linecap="round" stroke-linejoin="round"/>
</svg>
